<svg width="30" height="30" viewBox="0 0 30 30" fill="none" xmlns="http://www.w3.org/2000/svg">
<g clip-path="url(#clip0_404_125)">
<path fill-rule="evenodd" clip-rule="evenodd" d="M29.063 15C29.063 22.766 22.767 29.063 15 29.063C7.23401 29.063 0.937012 22.765 0.937012 15C0.937012 7.23401 7.23401 0.937012 15 0.937012C22.767 0.937012 29.063 7.23401 29.063 15Z" fill="#FF999C"/>
<path d="M28.125 15C28.125 7.75 22.25 1.875 15 1.875C7.75 1.875 1.875 7.75 1.875 15C1.875 22.25 7.75 28.125 15 28.125C22.25 28.125 28.125 22.249 28.125 15ZM30 15C30 23.284 23.285 30 15 30C6.716 30 0 23.284 0 15C0 6.716 6.716 0 15 0C23.285 0 30 6.716 30 15ZM21.69 21.392H19.815C19.815 20.115 19.3077 18.8903 18.4047 17.9873C17.5017 17.0843 16.277 16.577 15 16.577C13.723 16.577 12.4983 17.0843 11.5953 17.9873C10.6923 18.8903 10.185 20.115 10.185 21.392H8.31C8.31 19.6177 9.01484 17.9161 10.2695 16.6615C11.5241 15.4068 13.2257 14.702 15 14.702C16.7743 14.702 18.4759 15.4068 19.7305 16.6615C20.9852 17.9161 21.69 19.6177 21.69 21.392ZM20.114 10.206C20.114 10.6298 19.9456 11.0363 19.646 11.336C19.3463 11.6356 18.9398 11.804 18.516 11.804C18.0922 11.804 17.6857 11.6356 17.386 11.336C17.0864 11.0363 16.918 10.6298 16.918 10.206C16.918 9.78218 17.0864 9.37573 17.386 9.07604C17.6857 8.77636 18.0922 8.608 18.516 8.608C18.9398 8.608 19.3463 8.77636 19.646 9.07604C19.9456 9.37573 20.114 9.78218 20.114 10.206ZM13.082 10.206C13.0873 10.4192 13.05 10.6312 12.9721 10.8297C12.8942 11.0282 12.7774 11.2091 12.6285 11.3617C12.4796 11.5143 12.3017 11.6357 12.1052 11.7185C11.9088 11.8013 11.6977 11.844 11.4845 11.844C11.2713 11.844 11.0602 11.8013 10.8638 11.7185C10.6673 11.6357 10.4894 11.5143 10.3405 11.3617C10.1916 11.2091 10.0748 11.0282 9.99693 10.8297C9.91904 10.6312 9.88167 10.4192 9.887 10.206C9.89743 9.78924 10.0703 9.39305 10.3688 9.10197C10.6672 8.81089 11.0676 8.64797 11.4845 8.64797C11.9014 8.64797 12.3018 8.81089 12.6002 9.10197C12.8987 9.39305 13.0716 9.78924 13.082 10.206Z" fill="#231F20"/>
</g>
<defs>
<clipPath id="clip0_404_125">
<rect width="30" height="30" fill="white"/>
</clipPath>
</defs>
</svg>
