<svg width="20" height="20" viewBox="0 0 20 20" fill="none" xmlns="http://www.w3.org/2000/svg">
<path d="M10.9768 9.99995L7.44093 13.5358C7.36134 13.6127 7.29785 13.7046 7.25418 13.8063C7.21051 13.9079 7.18752 14.0173 7.18655 14.1279C7.18559 14.2386 7.20668 14.3483 7.24858 14.4507C7.29048 14.5532 7.35236 14.6462 7.4306 14.7244C7.50884 14.8027 7.60189 14.8646 7.7043 14.9065C7.80672 14.9484 7.91645 14.9695 8.0271 14.9685C8.13775 14.9675 8.2471 14.9445 8.34877 14.9009C8.45044 14.8572 8.54239 14.7937 8.61926 14.7141L12.7443 10.5891C12.9005 10.4328 12.9883 10.2209 12.9883 9.99995C12.9883 9.77898 12.9005 9.56705 12.7443 9.41078L8.61926 5.28578C8.54239 5.20619 8.45044 5.1427 8.34877 5.09903C8.2471 5.05535 8.13775 5.03237 8.0271 5.0314C7.91645 5.03044 7.80672 5.05153 7.7043 5.09343C7.60189 5.13533 7.50884 5.19721 7.4306 5.27545C7.35236 5.35369 7.29048 5.44674 7.24858 5.54915C7.20668 5.65156 7.18559 5.7613 7.18655 5.87195C7.18752 5.9826 7.21051 6.09195 7.25418 6.19362C7.29785 6.29529 7.36134 6.38724 7.44093 6.46411L10.9768 9.99995Z" fill="currentColor"/>
</svg>
