<svg width="28" height="28" viewBox="0 0 28 28" fill="none" xmlns="http://www.w3.org/2000/svg">
<path d="M20.1726 2.33331H6.72422C6.42699 2.33331 6.14193 2.45623 5.93176 2.67502C5.72159 2.89381 5.60352 3.19056 5.60352 3.49998V22.1666C5.60352 22.4761 5.72159 22.7728 5.93176 22.9916C6.14193 23.2104 6.42699 23.3333 6.72422 23.3333H7.84492V24.5C7.84489 24.6532 7.87387 24.8049 7.93018 24.9465C7.98649 25.0881 8.06903 25.2167 8.1731 25.3251C8.27717 25.4334 8.40072 25.5194 8.5367 25.578C8.67268 25.6366 8.81843 25.6668 8.96562 25.6668C9.1128 25.6668 9.25855 25.6366 9.39453 25.578C9.53051 25.5194 9.65406 25.4334 9.75813 25.3251C9.8622 25.2167 9.94475 25.0881 10.0011 24.9465C10.0574 24.8049 10.0863 24.6532 10.0863 24.5V23.3333H20.1726C21.0643 23.3333 21.9195 22.9646 22.55 22.3082C23.1805 21.6518 23.5347 20.7616 23.5347 19.8333V5.83331C23.5347 4.90506 23.1805 4.01482 22.55 3.35844C21.9195 2.70206 21.0643 2.33331 20.1726 2.33331ZM16.8105 21H7.84492V4.66665H16.8105V21ZM21.2933 19.8333C21.2933 20.1427 21.1752 20.4395 20.9651 20.6583C20.7549 20.8771 20.4699 21 20.1726 21H19.0519V4.66665H20.1726C20.4699 4.66665 20.7549 4.78956 20.9651 5.00835C21.1752 5.22715 21.2933 5.52389 21.2933 5.83331V19.8333Z" fill="white"/>
</svg>
