<svg width="24" height="24" viewBox="0 0 24 24" fill="none" xmlns="http://www.w3.org/2000/svg">
<path d="M19.1312 3.86847C19.6937 4.43108 20.0098 5.19411 20.0098 5.98972C20.0098 6.78534 19.6937 7.54837 19.1312 8.11097L7.25716 19.985C7.16334 20.0786 7.03619 20.1311 6.90366 20.131H3.86816C3.60295 20.131 3.34859 20.0256 3.16106 19.8381C2.97352 19.6505 2.86816 19.3962 2.86816 19.131V16.096C2.86805 16.0303 2.88088 15.9652 2.90593 15.9044C2.93098 15.8437 2.96776 15.7885 3.01416 15.742L14.8897 3.86847C15.4522 3.30606 16.2152 2.99011 17.0107 2.99011C17.8062 2.99011 18.5691 3.30606 19.1317 3.86847H19.1312ZM18.0712 4.92847C17.8006 4.65793 17.4368 4.50103 17.0543 4.48987C16.6718 4.47872 16.2996 4.61416 16.0137 4.86847L15.9492 4.92847L4.42666 16.4515C4.4081 16.4701 4.39337 16.4921 4.38334 16.5164C4.3733 16.5407 4.36814 16.5667 4.36816 16.593V18.432C4.36816 18.5425 4.45766 18.632 4.56816 18.632H6.40616C6.43247 18.6319 6.45851 18.6267 6.48279 18.6166C6.50707 18.6064 6.52912 18.5916 6.54766 18.573L18.0707 7.05097C18.3413 6.78044 18.4983 6.41672 18.5095 6.03424C18.5208 5.65176 18.3854 5.27944 18.1312 4.99347L18.0712 4.92947V4.92847Z" fill="#999999"/>
<path d="M13.8281 4.92896L18.0706 9.17145L17.0101 10.232L12.7676 5.98946L13.8281 4.92896Z" fill="#999999"/>
<path d="M11.7 18.65H19.8C19.9333 18.65 20 18.7167 20 18.85V19.95C20 20.0834 19.9333 20.15 19.8 20.15H11.7C11.5667 20.15 11.5 20.0834 11.5 19.95V18.85C11.5 18.7167 11.5667 18.65 11.7 18.65Z" fill="#999999"/>
<path d="M15.7 15.65H19.8C19.9333 15.65 20 15.7167 20 15.85V16.95C20 17.0834 19.9333 17.15 19.8 17.15H15.7C15.5667 17.15 15.5 17.0834 15.5 16.95V15.85C15.5 15.7167 15.5667 15.65 15.7 15.65Z" fill="#999999"/>
</svg>
