<svg width="28" height="18" viewBox="0 0 28 18" fill="none" xmlns="http://www.w3.org/2000/svg">
<path d="M8.40032 16.7998L9.46699 15.7332C10.8003 16.1332 12.4003 16.3998 14.0003 16.3998C19.067 16.3998 22.9337 14.2665 25.7337 9.73317C24.267 7.46651 22.5337 5.73317 20.5337 4.6665L21.467 3.73317C23.7337 5.0665 25.6003 7.0665 27.2003 9.73317C24.1337 15.0665 19.6003 17.7332 13.867 17.7332C12.0003 17.8665 10.1337 17.4665 8.40032 16.7998ZM4.80033 14.7998C3.20033 13.5998 1.86699 11.8665 0.666992 9.8665C3.73366 4.53317 8.26699 1.8665 14.0003 1.8665C15.2003 1.8665 16.4003 1.99984 17.467 2.2665L16.4003 3.33317C15.6003 3.19984 14.9337 3.19984 14.0003 3.19984C8.93366 3.19984 5.06699 5.33317 2.26699 9.8665C3.33366 11.4665 4.53366 12.7998 5.86699 13.8665L4.80033 14.7998ZM12.0003 13.3332L12.9337 12.3998C13.2003 12.5332 13.6003 12.5332 13.867 12.5332C15.3337 12.5332 16.5337 11.3332 16.5337 9.8665C16.5337 9.46651 16.5337 9.19984 16.4003 8.93317L17.3337 7.99984C17.7337 8.53317 17.867 9.19984 17.867 9.99984C17.867 12.2665 16.1337 13.9998 13.867 13.9998C13.3337 13.8665 12.667 13.5998 12.0003 13.3332ZM10.0003 9.59984C10.1337 7.46651 11.7337 5.8665 13.867 5.73317C13.867 5.8665 10.0003 9.59984 10.0003 9.59984ZM20.9337 0.666504L21.867 1.59984L5.86699 17.5998L4.80033 16.6665L20.9337 0.666504Z" fill="#707070"/>
</svg>
