<svg width="28" height="16" viewBox="0 0 28 16" fill="none" xmlns="http://www.w3.org/2000/svg">
<path d="M13.9998 1.33333C8.93317 1.33333 5.0665 3.46667 2.2665 8C5.0665 12.5333 8.93317 14.6667 13.9998 14.6667C19.0665 14.6667 22.9332 12.5333 25.7332 8C22.9332 3.46667 19.0665 1.33333 13.9998 1.33333ZM13.9998 16C8.2665 16 3.73317 13.3333 0.666504 8C3.73317 2.66667 8.2665 0 13.9998 0C19.7332 0 24.2665 2.66667 27.3332 8C24.2665 13.3333 19.7332 16 13.9998 16ZM13.9998 10.6667C15.4665 10.6667 16.6665 9.46667 16.6665 8C16.6665 6.53333 15.4665 5.33333 13.9998 5.33333C12.5332 5.33333 11.3332 6.53333 11.3332 8C11.3332 9.46667 12.5332 10.6667 13.9998 10.6667ZM13.9998 12C11.7332 12 9.99984 10.2667 9.99984 8C9.99984 5.73333 11.7332 4 13.9998 4C16.2665 4 17.9998 5.73333 17.9998 8C17.9998 10.2667 16.2665 12 13.9998 12Z" fill="#707070"/>
</svg>
