<svg width="30" height="30" viewBox="0 0 30 30" fill="none" xmlns="http://www.w3.org/2000/svg">
<g clip-path="url(#clip0_404_112)">
<path fill-rule="evenodd" clip-rule="evenodd" d="M30 15C30 23.284 23.284 30 15 30C6.716 30 0 23.284 0 15C0 6.716 6.716 0 15 0C23.284 0 30 6.716 30 15Z" fill="#B3F1E9"/>
<path d="M28.125 15C28.125 7.75 22.25 1.875 15 1.875C7.75 1.875 1.875 7.75 1.875 15C1.875 22.25 7.75 28.125 15 28.125C22.25 28.125 28.125 22.25 28.125 15ZM30 15C30 23.284 23.284 30 15 30C6.716 30 0 23.284 0 15C0 6.716 6.716 0 15 0C23.284 0 30 6.716 30 15ZM19.815 15.64H21.69C21.69 17.4143 20.9852 19.1159 19.7305 20.3705C18.4759 21.6252 16.7743 22.33 15 22.33C13.2257 22.33 11.5241 21.6252 10.2695 20.3705C9.01484 19.1159 8.31 17.4143 8.31 15.64H10.185C10.185 16.917 10.6923 18.1417 11.5953 19.0447C12.4983 19.9477 13.723 20.455 15 20.455C16.277 20.455 17.5017 19.9477 18.4047 19.0447C19.3077 18.1417 19.815 16.917 19.815 15.64ZM20.115 10.206C20.115 10.6299 19.9466 11.0365 19.6468 11.3363C19.347 11.6361 18.9404 11.8045 18.5165 11.8045C18.0926 11.8045 17.686 11.6361 17.3862 11.3363C17.0864 11.0365 16.918 10.6299 16.918 10.206C16.918 9.78218 17.0864 9.37573 17.386 9.07604C17.6857 8.77636 18.0922 8.608 18.516 8.608C18.9398 8.608 19.3463 8.77636 19.646 9.07604C19.9456 9.37573 20.114 9.78218 20.114 10.206M13.082 10.206C13.0873 10.4192 13.05 10.6312 12.9721 10.8297C12.8942 11.0282 12.7774 11.2091 12.6285 11.3617C12.4796 11.5143 12.3017 11.6357 12.1052 11.7185C11.9088 11.8013 11.6977 11.844 11.4845 11.844C11.2713 11.844 11.0602 11.8013 10.8638 11.7185C10.6673 11.6357 10.4894 11.5143 10.3405 11.3617C10.1916 11.2091 10.0748 11.0282 9.99693 10.8297C9.91904 10.6312 9.88167 10.4192 9.887 10.206C9.89743 9.78924 10.0703 9.39305 10.3688 9.10197C10.6672 8.81089 11.0676 8.64797 11.4845 8.64797C11.9014 8.64797 12.3018 8.81089 12.6002 9.10197C12.8987 9.39305 13.0716 9.78924 13.082 10.206Z" fill="#231F20"/>
</g>
<defs>
<clipPath id="clip0_404_112">
<rect width="30" height="30" fill="white"/>
</clipPath>
</defs>
</svg>
