<svg t="1668147985243" class="icon" viewBox="0 0 1024 1024" version="1.1" xmlns="http://www.w3.org/2000/svg" p-id="22487" width="128" height="128"><path d="M910.222222 420.977778c0-1.422222 0-2.844444-1.422222-4.266667 0-1.422222-1.422222-2.844444-2.844444-4.266667l-1.422223-1.422222c-1.422222-1.422222-1.422222-1.422222-2.844444-1.422222h-1.422222c-1.422222 0-2.844444-1.422222-4.266667-1.422222h-128c-8.533333 0-14.222222 5.688889-14.222222 14.222222s5.688889 14.222222 14.222222 14.222222h93.866667L600.177778 696.888889c-2.844444 2.844444-7.111111 4.266667-9.955556 4.266667-4.266667 0-7.111111-1.422222-9.955555-4.266667l-108.088889-115.2c-8.533333-8.533333-18.488889-12.8-29.866667-12.8s-22.755556 4.266667-31.288889 12.8L118.044444 871.822222c-5.688889 5.688889-5.688889 14.222222 0 19.911111 2.844444 2.844444 5.688889 4.266667 9.955556 4.266667 4.266667 0 7.111111-1.422222 9.955556-4.266667l291.555555-291.555555c2.844444-2.844444 5.688889-4.266667 9.955556-4.266667 4.266667 0 7.111111 1.422222 9.955555 4.266667l108.088889 115.2c8.533333 8.533333 18.488889 12.8 29.866667 12.8s22.755556-4.266667 31.288889-12.8L881.777778 455.111111v96.711111c0 8.533333 5.688889 14.222222 14.222222 14.222222s14.222222-5.688889 14.222222-14.222222v-130.844444z m-543.288889 66.844444l8.533334 5.688889c56.888889-38.4 109.511111-82.488889 156.444444-130.844444 44.088889-45.511111 44.088889-116.622222-1.422222-160.711111l-1.422222-1.422223c-41.244444-39.822222-108.088889-39.822222-150.755556-1.422222l-2.844444 1.422222c-42.666667-39.822222-110.933333-39.822222-152.177778 0l-9.955556 9.955556c-38.4 45.511111-34.133333 110.933333 7.111111 153.6 44.088889 45.511111 92.444444 86.755556 146.488889 123.733333z" p-id="22488" fill="currentColor"></path></svg>