<svg width="9" height="5" viewBox="0 0 9 5" fill="none" xmlns="http://www.w3.org/2000/svg">
<path d="M8.90136 1.72678C8.39434 2.50635 7.68579 3.18176 6.93977 3.72511C6.33253 4.16646 5.64824 4.62171 4.89148 4.73801C4.50331 4.79869 4.04127 4.77621 3.66665 4.65382C3.12185 4.47648 2.6427 4.12115 2.17996 3.79431C1.90915 3.60345 1.69615 3.69445 1.49279 3.93204C1.36648 4.07975 1.37327 4.39411 1.25732 4.51253C1.10925 4.66562 0.949067 4.63814 0.941567 4.3659C0.933012 3.98809 1.47744 3.55707 1.78678 3.44111C1.61624 2.85066 2.01797 1.84239 2.39795 1.40389C3.84399 -0.261914 6.29613 -0.0292962 8.03296 0.98004C8.11109 1.02607 9.01231 1.55411 8.90136 1.72678V1.72678Z" fill="#5FBC8E"/>
</svg>
