<svg width="30" height="30" viewBox="0 0 30 30" fill="none" xmlns="http://www.w3.org/2000/svg">
<g clip-path="url(#clip0_404_131)">
<path fill-rule="evenodd" clip-rule="evenodd" d="M29.063 15C29.063 22.766 22.767 29.063 15 29.063C7.23401 29.063 0.937012 22.765 0.937012 15C0.937012 7.23401 7.23401 0.937012 15 0.937012C22.767 0.937012 29.063 7.23401 29.063 15Z" fill="#FEE019"/>
<path d="M28.125 15C28.125 7.75 22.25 1.875 15 1.875C7.75 1.875 1.875 7.75 1.875 15C1.875 22.25 7.75 28.125 15 28.125C22.25 28.125 28.125 22.249 28.125 15ZM30 15C30 23.284 23.285 30 15 30C6.716 30 0 23.284 0 15C0 6.716 6.716 0 15 0C23.285 0 30 6.716 30 15ZM12.443 19.134V17.26H17.557V19.134H12.443ZM20.113 10.206C20.113 10.6298 19.9446 11.0363 19.645 11.336C19.3453 11.6356 18.9388 11.804 18.515 11.804C18.0912 11.804 17.6847 11.6356 17.385 11.336C17.0854 11.0363 16.917 10.6298 16.917 10.206C16.917 9.78205 17.0854 9.37547 17.3852 9.07569C17.685 8.77591 18.0916 8.6075 18.5155 8.6075C18.9394 8.6075 19.346 8.77591 19.6458 9.07569C19.9456 9.37547 20.114 9.78205 20.114 10.206M13.082 10.206C13.082 10.4159 13.0407 10.6236 12.9604 10.8175C12.8801 11.0114 12.7623 11.1876 12.614 11.336C12.4656 11.4843 12.2894 11.6021 12.0955 11.6824C11.9017 11.7627 11.6939 11.804 11.484 11.804C11.2741 11.804 11.0663 11.7627 10.8725 11.6824C10.6786 11.6021 10.5024 11.4843 10.354 11.336C10.2057 11.1876 10.0879 11.0114 10.0076 10.8175C9.92733 10.6236 9.886 10.4159 9.886 10.206C9.886 9.78218 10.0544 9.37573 10.354 9.07604C10.6537 8.77636 11.0602 8.608 11.484 8.608C11.9078 8.608 12.3143 8.77636 12.614 9.07604C12.9136 9.37573 13.082 9.78218 13.082 10.206Z" fill="#231F20"/>
</g>
<defs>
<clipPath id="clip0_404_131">
<rect width="30" height="30" fill="white"/>
</clipPath>
</defs>
</svg>
