<svg width="28" height="28" viewBox="0 0 28 28" fill="none" xmlns="http://www.w3.org/2000/svg">
<path d="M15.6521 15.0707C15.6745 15.078 15.6986 15.0831 15.7266 15.0898C16.6674 15.311 17.5533 15.7142 18.3485 16.2815C18.3681 16.2938 18.3871 16.2977 18.4079 16.3078C18.6929 16.515 18.9662 16.7328 19.2238 16.9815C19.4853 17.2301 19.9075 17.2301 20.1691 16.9775C20.4272 16.7289 20.4272 16.3229 20.1657 16.0709C19.2131 15.1536 18.0724 14.4833 16.8393 14.0661C18.521 13.0878 19.6544 11.3126 19.6544 9.28091C19.6527 6.20035 17.0527 3.69379 13.8562 3.69379C10.6603 3.69379 8.05851 6.20035 8.05851 9.28091C8.05851 11.3316 9.21379 13.1219 10.9279 14.0963C7.53547 15.2768 5.10059 18.4027 5.10059 22.0719C5.10059 22.1654 5.12355 22.2527 5.15995 22.3311C5.25739 22.5647 5.49539 22.7338 5.77595 22.7338C6.14275 22.7338 6.43899 22.4482 6.43899 22.0948C6.43899 18.1177 9.79619 14.8787 13.9256 14.8753C13.9687 14.8753 14.0152 14.8787 14.0583 14.8787C14.2297 14.8826 14.4016 14.8899 14.5691 14.905C14.6945 14.9123 14.8222 14.9313 14.9476 14.9464C15.0266 14.9537 15.1039 14.9655 15.1817 14.98C15.343 15.008 15.4998 15.0343 15.6521 15.0707ZM13.8567 13.5845C11.3939 13.5845 9.38795 11.6547 9.38795 9.28035C9.38795 6.90987 11.3905 4.97619 13.8534 4.97619C16.3168 4.97619 18.3188 6.90595 18.3188 9.28035C18.3183 11.6592 16.3196 13.589 13.8567 13.5845ZM14.9655 18.2454C14.9655 18.5612 15.2321 18.8177 15.5614 18.8177H22.4253C22.754 18.8177 23.0211 18.5612 23.0211 18.2454C23.0211 17.929 22.7546 17.6731 22.4253 17.6731H15.5614C15.2321 17.6731 14.9655 17.929 14.9655 18.2454ZM22.4253 19.6196H15.5614C15.2327 19.6196 14.9655 19.8761 14.9655 20.1919C14.9655 20.5078 15.2321 20.7643 15.5614 20.7643H22.4253C22.754 20.7643 23.0211 20.5078 23.0211 20.1919C23.0211 19.8761 22.754 19.6196 22.4253 19.6196ZM22.4253 21.5897H15.5614C15.2327 21.5897 14.9655 21.8462 14.9655 22.162C14.9655 22.4779 15.2321 22.7343 15.5614 22.7343H22.4253C22.754 22.7343 23.0211 22.4779 23.0211 22.162C23.0206 21.8462 22.754 21.5897 22.4253 21.5897Z" fill="white"/>
</svg>
