<svg width="28" height="28" viewBox="0 0 28 28" fill="none" xmlns="http://www.w3.org/2000/svg">
<path d="M20.206 3.84167H22.56C23.4113 3.84167 24.2277 4.17986 24.8297 4.78184C25.4317 5.38381 25.7699 6.20027 25.7699 7.05159V22.0312C25.7699 22.8825 25.4317 23.699 24.8297 24.301C24.2277 24.9029 23.4113 25.2411 22.56 25.2411H5.44039C4.58906 25.2411 3.77261 24.9029 3.17063 24.301C2.56866 23.699 2.23047 22.8825 2.23047 22.0312V7.05159C2.23047 6.20027 2.56866 5.38381 3.17063 4.78184C3.77261 4.17986 4.58906 3.84167 5.44039 3.84167H7.79433V2.76528C7.79433 2.53826 7.88451 2.32054 8.04504 2.16001C8.20556 1.99948 8.42329 1.9093 8.65031 1.9093C8.87733 1.9093 9.09505 1.99948 9.25557 2.16001C9.4161 2.32054 9.50628 2.53826 9.50628 2.76528V3.84167H18.4941V2.76528C18.4941 2.53826 18.5842 2.32054 18.7448 2.16001C18.9053 1.99948 19.123 1.9093 19.35 1.9093C19.5771 1.9093 19.7948 1.99948 19.9553 2.16001C20.1158 2.32054 20.206 2.53826 20.206 2.76528V3.84167ZM20.206 5.55363V6.51018C20.206 6.7372 20.1158 6.95493 19.9553 7.11545C19.7948 7.27598 19.5771 7.36616 19.35 7.36616C19.123 7.36616 18.9053 7.27598 18.7448 7.11545C18.5842 6.95493 18.4941 6.7372 18.4941 6.51018V5.55363H9.50628V6.51018C9.50628 6.7372 9.4161 6.95493 9.25557 7.11545C9.09505 7.27598 8.87733 7.36616 8.65031 7.36616C8.42329 7.36616 8.20556 7.27598 8.04504 7.11545C7.88451 6.95493 7.79433 6.7372 7.79433 6.51018V5.55363H5.44039C5.24367 5.55363 5.04888 5.59238 4.86714 5.66765C4.6854 5.74293 4.52027 5.85327 4.38117 5.99237C4.24207 6.13147 4.13173 6.2966 4.05645 6.47835C3.98117 6.66009 3.94243 6.85488 3.94243 7.05159V22.0312C3.94243 22.2279 3.98117 22.4227 4.05645 22.6045C4.13173 22.7862 4.24207 22.9513 4.38117 23.0904C4.52027 23.2295 4.6854 23.3399 4.86714 23.4151C5.04888 23.4904 5.24367 23.5292 5.44039 23.5292H22.56C22.9572 23.5292 23.3383 23.3714 23.6192 23.0904C23.9001 22.8095 24.0579 22.4285 24.0579 22.0312V7.05159C24.0579 6.85488 24.0192 6.66009 23.9439 6.47835C23.8686 6.2966 23.7583 6.13147 23.6192 5.99237C23.4801 5.85327 23.3149 5.74293 23.1332 5.66765C22.9515 5.59238 22.7567 5.55363 22.56 5.55363H20.206Z" fill="white"/>
<path d="M11.8921 16.8354L9.27384 14.046C9.19771 13.961 9.10535 13.8921 9.0022 13.8433C8.89905 13.7945 8.78719 13.7669 8.67319 13.762C8.55919 13.757 8.44536 13.775 8.33838 13.8147C8.23141 13.8544 8.13346 13.9151 8.05028 13.9932C7.9671 14.0713 7.90038 14.1652 7.85404 14.2695C7.8077 14.3738 7.78268 14.4863 7.78044 14.6003C7.7782 14.7144 7.79879 14.8278 7.84101 14.9338C7.88322 15.0398 7.9462 15.1363 8.02625 15.2176L11.0671 18.4597C11.2569 18.6619 11.5179 18.7826 11.795 18.7962C12.072 18.8097 12.3435 18.7152 12.5522 18.5324L21.0446 11.0982C21.1292 11.0242 21.1984 10.9342 21.2482 10.8334C21.298 10.7326 21.3275 10.623 21.3349 10.5109C21.3424 10.3987 21.3277 10.2861 21.2916 10.1797C21.2556 10.0732 21.1989 9.97483 21.1249 9.89025C21.0508 9.80566 20.9608 9.73648 20.86 9.68667C20.7593 9.63686 20.6497 9.60739 20.5375 9.59994C20.4253 9.59248 20.3128 9.6072 20.2063 9.64324C20.0998 9.67928 20.0014 9.73595 19.9169 9.81L11.8921 16.8354Z" fill="white"/>
</svg>
