<svg t="1669207612750" class="icon" viewBox="0 0 1024 1024" version="1.1" xmlns="http://www.w3.org/2000/svg" p-id="8470" width="32" height="32"><path d="M132.608 204.288m-66.56 0a66.56 66.56 0 1 0 133.12 0 66.56 66.56 0 1 0-133.12 0Z" p-id="8471" fill="#444444"></path><path d="M962.01728 158.80192l-680.68352 0.3584-0.04096 84.44928 680.7552-0.3584-0.03072-84.44928z" p-id="8472" fill="#444444"></path><path d="M132.608 512m-66.56 0a66.56 66.56 0 1 0 133.12 0 66.56 66.56 0 1 0-133.12 0Z" p-id="8473" fill="#444444"></path><path d="M281.33376 466.87232l-0.04096 84.44928 680.7552-0.3584-0.03072-84.44928-680.68352 0.3584z" p-id="8474" fill="#444444"></path><path d="M132.608 819.712m-66.56 0a66.56 66.56 0 1 0 133.12 0 66.56 66.56 0 1 0-133.12 0Z" p-id="8475" fill="#444444"></path><path d="M281.33376 775.59808l-0.04096 84.44928 680.7552-0.3584-0.03072-84.44928-680.68352 0.3584z" p-id="8476" fill="currentColor"></path></svg>