<svg t="1668148153014" class="icon" viewBox="0 0 1024 1024" version="1.1" xmlns="http://www.w3.org/2000/svg" p-id="30183" width="128" height="128"><path d="M512.004 664.664c-79.281 0-153.817-30.874-209.878-86.934-56.06-56.061-86.934-130.597-86.934-209.878s30.874-153.817 86.934-209.878c56.061-56.06 130.597-86.934 209.878-86.934s153.817 30.874 209.878 86.934 86.935 130.597 86.935 209.878-30.874 153.818-86.935 209.878c-56.061 56.06-130.597 86.934-209.878 86.934z m0-543.704c-136.137 0-246.892 110.755-246.892 246.892s110.755 246.892 246.892 246.892 246.893-110.755 246.893-246.892S648.141 120.96 512.004 120.96zM897.058 952.95c-8.34 0-16.49-4.179-21.219-11.782-34.261-55.09-81.404-102.458-136.332-136.983-11.672-7.335-15.186-22.743-7.85-34.414 7.336-11.673 22.744-15.185 34.414-7.85 61.305 38.532 113.92 91.398 152.158 152.884 7.28 11.706 3.692 27.097-8.014 34.377a24.843 24.843 0 0 1-13.157 3.768zM126.943 952.964c-4.5 0-9.055-1.217-13.157-3.768-11.706-7.28-15.295-22.671-8.016-34.377 42.143-67.77 101.071-124.414 170.414-163.811 71.534-40.642 153.079-62.123 235.82-62.123 39.339 0 78.466 4.794 116.292 14.25 13.374 3.343 21.505 16.895 18.162 30.268-3.343 13.374-16.893 21.504-30.268 18.162-33.871-8.467-68.925-12.76-104.187-12.76-149.024 0-285.041 75.654-363.842 202.375-4.727 7.604-12.879 11.784-21.218 11.784z" fill="currentColor" p-id="30184"></path></svg>