<svg width="30" height="30" viewBox="0 0 30 30" fill="none" xmlns="http://www.w3.org/2000/svg">
<g clip-path="url(#clip0_404_118)">
<path fill-rule="evenodd" clip-rule="evenodd" d="M29.063 15C29.063 22.766 22.767 29.063 15 29.063C7.23401 29.063 0.937012 22.765 0.937012 15C0.937012 7.23401 7.23401 0.937012 15 0.937012C22.767 0.937012 29.063 7.23401 29.063 15Z" fill="#FC5158"/>
<path d="M28.125 15C28.125 7.75 22.25 1.875 15 1.875C7.75 1.875 1.875 7.75 1.875 15C1.875 22.25 7.75 28.125 15 28.125C22.25 28.125 28.125 22.249 28.125 15ZM30 15C30 23.284 23.285 30 15 30C6.716 30 0 23.284 0 15C0 6.716 6.716 0 15 0C23.285 0 30 6.716 30 15ZM21.818 20.753V21.69H8.438V20.753C8.438 18.9787 9.14284 17.2771 10.3975 16.0225C11.6521 14.7678 13.3537 14.063 15.128 14.063C16.9023 14.063 18.6039 14.7678 19.8585 16.0225C21.1132 17.2771 21.818 18.9787 21.818 20.753ZM19.852 19.815C19.6341 18.7225 19.0443 17.7392 18.183 17.0327C17.3217 16.3261 16.2421 15.94 15.128 15.94C14.014 15.94 12.9343 16.3261 12.073 17.0327C11.2117 17.7392 10.6219 18.7225 10.404 19.815H19.852ZM12.272 7.97H14.147C14.147 8.53 14.121 8.9 14.005 9.358C13.683 10.626 12.78 11.464 11.292 11.464H9.375V9.588H11.292C11.848 9.588 12.062 9.388 12.188 8.896C12.255 8.632 12.272 8.383 12.272 7.969V7.97ZM17.982 7.97H16.108C16.108 8.53 16.134 8.9 16.25 9.358C16.572 10.626 17.475 11.464 18.963 11.464H20.88V9.588H18.963C18.407 9.588 18.193 9.388 18.067 8.896C18 8.632 17.983 8.383 17.983 7.969L17.982 7.97Z" fill="#231F20"/>
</g>
<defs>
<clipPath id="clip0_404_118">
<rect width="30" height="30" fill="white"/>
</clipPath>
</defs>
</svg>
