<svg width="60" height="60" viewBox="0 0 60 60" fill="none" xmlns="http://www.w3.org/2000/svg">
<path fill-rule="evenodd" clip-rule="evenodd" d="M58.126 30C58.126 45.532 45.532 58.126 30 58.126C14.468 58.126 1.87402 45.53 1.87402 30C1.87402 14.468 14.468 1.87402 30 1.87402C45.532 1.87402 58.126 14.468 58.126 30Z" fill="#38D6C1"/>
<path d="M56.25 30C56.25 15.5 44.5 3.75 30 3.75C15.5 3.75 3.75 15.5 3.75 30C3.75 44.5 15.5 56.25 30 56.25C44.5 56.25 56.25 44.5 56.25 30ZM60 30C60 46.568 46.568 60 30 60C13.432 60 0 46.568 0 30C0 13.432 13.432 0 30 0C46.568 0 60 13.432 60 30ZM43.636 31.876C43.636 35.4246 42.2263 38.8279 39.7171 41.3371C37.2079 43.8463 33.8046 45.256 30.256 45.256C26.7074 45.256 23.3041 43.8463 20.7949 41.3371C18.2857 38.8279 16.876 35.4246 16.876 31.876V30H43.636V31.876ZM20.808 33.75C21.2437 35.9351 22.4233 37.9016 24.146 39.3147C25.8687 40.7278 28.0279 41.5001 30.256 41.5001C32.4841 41.5001 34.6433 40.7278 36.366 39.3147C38.0887 37.9016 39.2683 35.9351 39.704 33.75H20.808V33.75ZM35.708 21.05H31.96C31.96 17.964 34.146 15.34 37.032 15.34C39.916 15.34 42.102 17.964 42.102 21.052H38.354C38.354 19.9 37.68 19.092 37.034 19.092C36.386 19.092 35.714 19.9 35.714 21.052L35.708 21.05ZM21.648 21.05H17.9C17.9 17.964 20.084 15.34 22.968 15.34C25.854 15.34 28.04 17.964 28.04 21.052H24.29C24.29 19.9 23.616 19.092 22.97 19.092C22.322 19.092 21.65 19.9 21.65 21.052L21.648 21.05Z" fill="#231F20"/>
</svg>
